<?xml version="1.0" encoding="UTF-8" standalone="no"?>
<svg viewBox="0 0 32 32">
  <g transform="matrix(-0.03194934,0,0,0.03195537,32.054415,-0.03574125)">
    <path fill="currentColor" stroke-width="0.98813391" d="M 411.28295,1.4130655 C 310.74398,9.7369687 209.80138,14.233393 109.64143,26.454303 57.41896,40.383839 19.424771,93.335172 21.641834,147.13627 15.438448,240.10972 4.8581946,332.8923 2.2161811,426.09048 5.7996297,462.65965 29.137323,493.96429 56.314306,517.18461 210.78267,670.21403 362.71466,825.81704 518.52248,977.47506 c 45.78358,36.15244 118.58395,30.57034 158.16707,-12.36589 94.76318,-96.10021 191.84722,-189.8925 285.5925,-286.99595 12.14765,-11.78328 23.72214,-24.69892 29.94357,-40.70406 18.17398,-43.44167 8.69368,-97.45224 -24.67003,-131.06297 C 904.2616,444.32591 842.09266,381.11675 779.38366,318.48612 682.10342,221.09237 585.10833,123.38442 486.52349,27.322785 465.66939,9.9454905 438.27895,1.2054872 411.28295,1.4130655 Z m 9.77127,73.6685255 c 22.6633,4.938375 36.21653,25.482989 52.09194,40.482309 149.08215,149.63884 299.36182,298.10429 447.53223,448.6469 14.99906,21.56551 6.96932,53.77335 -14.46971,67.97047 -96.65766,96.2525 -191.87527,193.96087 -290.08602,288.638 -22.6215,14.56518 -54.69284,5.25261 -69.49994,-16.30349 C 392.24723,748.73247 235.7832,595.02582 82.14947,438.51054 70.12505,419.50203 75.471702,396.16009 77.227215,375.19211 84.580963,291.65478 87.694569,207.58926 98.488321,124.49823 107.08037,103.08919 131.60126,91.94653 153.84225,94.207174 242.92413,88.079435 331.8814,78.791644 421.05422,75.081591 Z M 272.09199,175.16162 c -53.23585,-0.66006 -100.97077,49.83879 -96.98708,102.99622 1.8694,48.56687 44.24692,93.0416 93.4792,93.87716 43.96155,2.33273 88.87488,-27.74305 99.69557,-71.04624 12.1806,-42.00193 -6.40823,-92.01031 -45.71773,-112.679 -15.27474,-8.70263 -32.8601,-13.48015 -50.46996,-13.14814 z m 0.86848,72.64758 c 21.27658,-1.68631 35.33307,28.96899 19.38622,43.51097 -12.8814,13.59687 -40.60215,7.5852 -43.79993,-11.88277 -3.40784,-14.87024 8.70922,-31.86672 24.41371,-31.6282 z" />
  </g>
</svg>
